<?xml version="1.0" standalone="no"?>
<!DOCTYPE svg PUBLIC "-//W3C//DTD SVG 20010904//EN"
 "http://www.w3.org/TR/2001/REC-SVG-20010904/DTD/svg10.dtd">
<svg version="1.0" xmlns="http://www.w3.org/2000/svg"
 width="350.000000pt" height="350.000000pt" viewBox="0 0 350.000000 350.000000"
 preserveAspectRatio="xMidYMid meet">

<g transform="translate(0.000000,350.000000) scale(0.100000,-0.100000)"
fill="#000000" stroke="none">
<path d="M2775 2638 c-35 -28 -52 -68 -60 -148 -5 -46 -18 -84 -42 -130 -66
-123 -203 -290 -255 -310 -65 -26 -116 -77 -133 -132 -8 -29 -15 -61 -15 -73
0 -24 -107 -132 -180 -182 -67 -45 -134 -77 -128 -61 59 155 177 571 193 679
l7 46 -55 7 c-110 14 -164 -37 -195 -186 -20 -95 -61 -161 -170 -280 -78 -84
-133 -118 -192 -118 -73 0 -84 19 -77 127 6 103 52 247 123 383 41 80 43 85
26 104 -19 22 -109 66 -134 66 -60 0 -176 -225 -228 -445 -23 -95 -65 -160
-159 -247 -60 -55 -209 -153 -219 -144 -2 3 22 82 53 176 54 165 126 429 140
516 l6 42 -53 6 c-114 14 -173 -42 -199 -190 -15 -84 -77 -181 -184 -290 -77
-78 -123 -104 -182 -104 -46 0 -70 20 -79 67 -14 70 56 306 134 457 42 81 40
89 -42 130 -75 38 -98 31 -152 -50 -112 -167 -192 -486 -153 -605 28 -82 110
-133 214 -133 118 0 208 55 325 200 33 42 60 73 60 71 0 -11 -54 -191 -86
-290 l-36 -108 -141 -71 c-165 -82 -244 -135 -314 -212 -112 -122 -112 -283 1
-347 55 -31 142 -32 209 -2 122 56 258 239 387 520 l47 102 68 37 c105 55 181
110 265 191 l77 73 7 -32 c15 -77 144 -147 247 -135 93 11 205 90 299 212 24
30 44 54 46 52 4 -4 -62 -233 -94 -327 l-18 -55 -155 -80 c-269 -140 -372
-241 -386 -380 -7 -67 10 -116 52 -154 66 -58 151 -63 253 -16 107 50 219 198
349 462 l75 152 66 37 c101 55 169 102 234 162 49 46 59 51 64 36 15 -49 56
-125 85 -159 92 -104 303 -134 462 -66 56 24 136 96 163 146 14 27 29 38 59
46 55 15 112 45 161 85 50 40 126 150 153 221 20 51 20 53 2 63 -16 8 -24 1
-56 -55 -49 -82 -127 -164 -196 -204 -77 -44 -81 -43 -73 32 10 94 -10 189
-84 407 -66 193 -67 196 -67 303 0 85 -3 110 -15 117 -26 17 -76 11 -105 -12z
m-1 -471 c39 -165 61 -324 52 -373 -6 -31 -8 -32 -39 -23 -93 26 -231 126
-266 192 -12 23 -9 30 51 109 36 46 86 121 113 166 27 44 51 80 52 78 2 -2 19
-69 37 -149z m-127 -434 c32 -17 77 -37 101 -44 47 -14 48 -16 26 -47 -38 -55
-167 -82 -232 -48 -67 35 -111 119 -112 212 0 91 11 94 91 20 37 -34 94 -76
126 -93z m-2067 -397 c-66 -174 -239 -396 -309 -396 -36 0 -51 22 -51 77 0 71
76 162 209 250 47 32 151 92 158 93 1 0 -2 -11 -7 -24z m1036 -93 c-97 -186
-200 -303 -267 -303 -37 0 -53 30 -46 87 6 58 43 111 121 176 65 53 236 160
244 153 2 -3 -21 -53 -52 -113z"/>
</g>
</svg>
